<svg width="90" height="13" viewBox="0 0 90 13" fill="none" xmlns="http://www.w3.org/2000/svg">
<path d="M8.41591 9.91277L10.9491 12.6029H8.75088L6.89812 10.5932C6.42708 10.7292 5.92463 10.792 5.39079 10.792C2.418 10.792 0 8.56246 0 5.39079C0 2.22959 2.418 0 5.39079 0C8.39498 0 10.7816 2.22959 10.7816 5.39079C10.792 7.37962 9.86044 8.99163 8.41591 9.91277ZM5.40126 9.29518C7.49477 9.29518 9.01257 7.77739 9.01257 5.39079C9.01257 3.00419 7.49477 1.51779 5.40126 1.51779C3.30775 1.51779 1.78996 3.00419 1.78996 5.39079C1.78996 7.77739 3.30775 9.29518 5.40126 9.29518Z" fill="#121419"/>
<path d="M16.0572 2.18772C18.1089 2.18772 19.4382 3.20307 19.9093 4.96162H18.0461C17.753 4.15562 17.0935 3.64271 16.0572 3.64271C14.665 3.64271 13.7334 4.679 13.7334 6.50035C13.7334 8.33217 14.6546 9.36846 16.0572 9.36846C17.0935 9.36846 17.732 8.90789 18.0461 8.04955H19.9093C19.4382 9.69295 18.0984 10.8234 16.0572 10.8234C13.6602 10.8234 11.9539 9.12771 11.9539 6.50035C11.9539 3.88346 13.6602 2.18772 16.0572 2.18772Z" fill="#121419"/>
<path d="M25.2687 10.8234C22.8821 10.8234 21.0816 9.12771 21.0816 6.50035C21.0816 3.873 22.9658 2.18772 25.3419 2.18772C27.7285 2.18772 29.6022 3.873 29.6022 6.50035C29.6022 9.12771 27.6657 10.8234 25.2687 10.8234ZM25.2687 9.32659C26.5562 9.32659 27.8332 8.40545 27.8332 6.50035C27.8332 4.59526 26.6085 3.69504 25.3105 3.69504C24.0021 3.69504 22.8402 4.60573 22.8402 6.50035C22.8402 8.39498 23.9707 9.32659 25.2687 9.32659Z" fill="#121419"/>
<path d="M37.2645 6.00838C37.2645 4.48011 36.4271 3.68458 35.171 3.68458C33.8939 3.68458 33.0565 4.46965 33.0565 6.00838V10.6874H31.3294V2.3238H33.0565V3.27635C33.6218 2.59595 34.5429 2.18772 35.5478 2.18772C37.5052 2.18772 38.9812 3.41242 38.9812 5.75715V10.6874H37.2645V6.00838Z" fill="#121419"/>
<path d="M44.6964 2.18772C46.7481 2.18772 48.0775 3.20307 48.5485 4.96162H46.6853C46.3922 4.15562 45.7327 3.64271 44.6964 3.64271C43.3043 3.64271 42.3726 4.679 42.3726 6.50035C42.3726 8.33217 43.2938 9.36846 44.6964 9.36846C45.7327 9.36846 46.3713 8.90789 46.6853 8.04955H48.5485C48.0775 9.69295 46.7376 10.8234 44.6964 10.8234C42.2994 10.8234 40.5932 9.12771 40.5932 6.50035C40.6036 3.88346 42.2994 2.18772 44.6964 2.18772Z" fill="#121419"/>
<path d="M57.8646 10.6874H56.127V9.68248C55.5827 10.3943 54.6406 10.8025 53.6567 10.8025C51.6992 10.8025 50.2128 9.57781 50.2128 7.23308V2.31333H51.9295V6.97139C51.9295 8.49965 52.7669 9.29518 54.023 9.29518C55.3001 9.29518 56.1375 8.51012 56.1375 6.97139V2.3238H57.8646V10.6874Z" fill="#121419"/>
<path d="M61.8737 10.6874H60.1466V2.3238H61.8737V3.53803C62.3552 2.70063 63.1926 2.18772 64.3754 2.18772V3.97767H63.9358C62.6588 3.97767 61.8737 4.51151 61.8737 6.28053V10.6874Z" fill="#121419"/>
<path d="M69.0021 10.8234C67.0028 10.8234 65.5897 9.64062 65.5059 8.12282H67.2959C67.3587 8.80321 68.0077 9.36846 68.9707 9.36846C69.9756 9.36846 70.499 8.93929 70.499 8.36357C70.499 6.72017 65.642 7.66225 65.642 4.59526C65.642 3.25541 66.8876 2.17725 68.8555 2.17725C70.7502 2.17725 71.9958 3.1926 72.09 4.86741H70.3629C70.3001 4.13468 69.7453 3.64271 68.8032 3.64271C67.8821 3.64271 67.3901 4.01954 67.3901 4.58479C67.3901 6.27006 72.111 5.32798 72.2052 8.3531C72.2052 9.76622 70.9805 10.8234 69.0021 10.8234Z" fill="#121419"/>
<path d="M77.7006 10.8234C75.314 10.8234 73.5136 9.12771 73.5136 6.50035C73.5136 3.873 75.3978 2.18772 77.7739 2.18772C80.1605 2.18772 82.0342 3.873 82.0342 6.50035C82.0342 9.12771 80.0977 10.8234 77.7006 10.8234ZM77.7006 9.32659C78.9881 9.32659 80.2652 8.40545 80.2652 6.50035C80.2652 4.59526 79.0405 3.69504 77.7425 3.69504C76.4341 3.69504 75.2722 4.60573 75.2722 6.50035C75.2722 8.39498 76.4027 9.32659 77.7006 9.32659Z" fill="#121419"/>
<path d="M86.7969 10.8234C84.7976 10.8234 83.3845 9.64062 83.3008 8.12282H85.0907C85.1535 8.80321 85.8025 9.36846 86.7655 9.36846C87.7704 9.36846 88.2938 8.93929 88.2938 8.36357C88.2938 6.72017 83.4369 7.66225 83.4369 4.59526C83.4369 3.25541 84.6825 2.17725 86.6504 2.17725C88.545 2.17725 89.7906 3.1926 89.8849 4.86741H88.1577C88.0949 4.13468 87.5401 3.64271 86.598 3.64271C85.6769 3.64271 85.1849 4.01954 85.1849 4.58479C85.1849 6.27006 89.9058 5.32798 90 8.3531C90 9.76622 88.7648 10.8234 86.7969 10.8234Z" fill="#121419"/>
</svg>
